<mxfile host="app.diagrams.net" modified="2023-05-04T05:01:18.790Z" agent="Mozilla/5.0 (Windows NT 10.0; Win64; x64; rv:109.0) Gecko/20100101 Firefox/112.0" etag="R6S7gbjj_8sgrqLsKTAZ" version="21.2.6" type="github">
  <diagram id="wFE0QG_FPsp0jaGvCLVb" name="Page-1">
    <mxGraphModel dx="2033" dy="736" grid="1" gridSize="10" guides="1" tooltips="1" connect="1" arrows="1" fold="1" page="1" pageScale="1" pageWidth="850" pageHeight="1100" math="0" shadow="0">
      <root>
        <mxCell id="0" />
        <mxCell id="1" parent="0" />
        <object label="TO DO" status="New" id="_5mSTuPxr-ZiKRkBDSY7-2">
          <mxCell style="swimlane;strokeWidth=2;fontFamily=Permanent Marker;html=0;startSize=1;verticalAlign=bottom;spacingBottom=5;points=[];childLayout=stackLayout;stackBorder=20;stackSpacing=20;resizeLast=0;resizeParent=1;horizontalStack=0;collapsible=0;sketch=1;strokeColor=none;fillStyle=solid;fillColor=#A0522D;" parent="1" vertex="1">
            <mxGeometry x="30" y="270" width="180" height="221" as="geometry" />
          </mxCell>
        </object>
        <object label="Firefox の起動&lt;i&gt;&lt;span style=&quot;font-weight: normal&quot;&gt;&lt;br&gt;&lt;/span&gt;&lt;/i&gt;" placeholders="1" id="_5mSTuPxr-ZiKRkBDSY7-3">
          <mxCell style="whiteSpace=wrap;html=1;strokeWidth=2;fillColor=#dae8fc;fontStyle=1;spacingTop=0;rounded=1;arcSize=9;points=[];sketch=1;fontFamily=Permanent Marker;hachureGap=8;fillWeight=1;strokeColor=#6c8ebf;" parent="_5mSTuPxr-ZiKRkBDSY7-2" vertex="1">
            <mxGeometry x="20" y="21" width="140" height="80" as="geometry" />
          </mxCell>
        </object>
        <object label="Firefox 最初のスクリプト起動（" placeholders="1" id="_5mSTuPxr-ZiKRkBDSY7-11">
          <mxCell style="whiteSpace=wrap;html=1;strokeWidth=2;fillColor=#f8cecc;fontStyle=1;spacingTop=0;rounded=1;arcSize=9;points=[];sketch=1;fontFamily=Permanent Marker;hachureGap=8;fillWeight=1;strokeColor=#b85450;" parent="1" vertex="1">
            <mxGeometry x="500" y="290" width="140" height="80" as="geometry" />
          </mxCell>
        </object>
        <mxCell id="fmuVZZGOlsF8Z4shbadP-11" value="" style="edgeStyle=orthogonalEdgeStyle;rounded=0;orthogonalLoop=1;jettySize=auto;html=1;" parent="1" source="_5mSTuPxr-ZiKRkBDSY7-10" edge="1">
          <mxGeometry relative="1" as="geometry">
            <mxPoint x="750" y="160" as="targetPoint" />
          </mxGeometry>
        </mxCell>
        <object label="残りのコンポーネント" placeholders="1" id="_5mSTuPxr-ZiKRkBDSY7-10">
          <mxCell style="whiteSpace=wrap;html=1;strokeWidth=2;fillColor=#f8cecc;fontStyle=1;spacingTop=0;rounded=1;arcSize=9;points=[];sketch=1;fontFamily=Permanent Marker;hachureGap=8;fillWeight=1;strokeColor=#b85450;" parent="1" vertex="1">
            <mxGeometry x="500" y="120" width="140" height="80" as="geometry" />
          </mxCell>
        </object>
        <mxCell id="fmuVZZGOlsF8Z4shbadP-1" value="" style="endArrow=classic;html=1;rounded=0;" parent="1" edge="1">
          <mxGeometry width="50" height="50" relative="1" as="geometry">
            <mxPoint x="190" y="330" as="sourcePoint" />
            <mxPoint x="240" y="330" as="targetPoint" />
          </mxGeometry>
        </mxCell>
        <mxCell id="fmuVZZGOlsF8Z4shbadP-7" value="" style="edgeStyle=orthogonalEdgeStyle;rounded=0;orthogonalLoop=1;jettySize=auto;html=1;" parent="1" source="_5mSTuPxr-ZiKRkBDSY7-4" edge="1">
          <mxGeometry relative="1" as="geometry">
            <mxPoint x="320" y="200" as="targetPoint" />
          </mxGeometry>
        </mxCell>
        <mxCell id="fmuVZZGOlsF8Z4shbadP-9" value="" style="edgeStyle=orthogonalEdgeStyle;rounded=0;orthogonalLoop=1;jettySize=auto;html=1;" parent="1" source="_5mSTuPxr-ZiKRkBDSY7-4" target="_5mSTuPxr-ZiKRkBDSY7-11" edge="1">
          <mxGeometry relative="1" as="geometry" />
        </mxCell>
        <mxCell id="OLEUzLPQlqHIPB4nFk42-2" value="" style="edgeStyle=orthogonalEdgeStyle;rounded=0;orthogonalLoop=1;jettySize=auto;html=1;" edge="1" parent="1" source="_5mSTuPxr-ZiKRkBDSY7-4" target="OLEUzLPQlqHIPB4nFk42-1">
          <mxGeometry relative="1" as="geometry" />
        </mxCell>
        <object label="Firefox のバックエンドの起動（XUL.dll）" placeholders="1" id="_5mSTuPxr-ZiKRkBDSY7-4">
          <mxCell style="whiteSpace=wrap;html=1;strokeWidth=2;fillColor=#ffe6cc;fontStyle=1;spacingTop=0;rounded=1;arcSize=9;points=[];sketch=1;fontFamily=Permanent Marker;hachureGap=8;fillWeight=1;strokeColor=#d79b00;" parent="1" vertex="1">
            <mxGeometry x="250" y="290" width="140" height="80" as="geometry" />
          </mxCell>
        </object>
        <object label="Task 3&lt;br&gt;&lt;span style=&quot;font-weight: normal&quot;&gt;&lt;i&gt;&lt;font style=&quot;font-size: 10px&quot;&gt;%status%&lt;/font&gt;&lt;/i&gt;&lt;/span&gt;" placeholders="1" id="_5mSTuPxr-ZiKRkBDSY7-5">
          <mxCell style="whiteSpace=wrap;html=1;strokeWidth=2;fillColor=swimlane;fontStyle=1;spacingTop=0;rounded=1;arcSize=9;points=[];sketch=1;fontFamily=Permanent Marker;hachureGap=8;fillWeight=1;" parent="1" vertex="1">
            <mxGeometry x="780" y="280" width="140" height="80" as="geometry" />
          </mxCell>
        </object>
        <mxCell id="fmuVZZGOlsF8Z4shbadP-10" value="" style="edgeStyle=orthogonalEdgeStyle;rounded=0;orthogonalLoop=1;jettySize=auto;html=1;" parent="1" target="_5mSTuPxr-ZiKRkBDSY7-10" edge="1">
          <mxGeometry relative="1" as="geometry">
            <mxPoint x="390" y="160" as="sourcePoint" />
          </mxGeometry>
        </mxCell>
        <mxCell id="fmuVZZGOlsF8Z4shbadP-14" style="edgeStyle=orthogonalEdgeStyle;rounded=0;orthogonalLoop=1;jettySize=auto;html=1;" parent="1" source="fmuVZZGOlsF8Z4shbadP-12" edge="1">
          <mxGeometry relative="1" as="geometry">
            <mxPoint x="950" y="510" as="targetPoint" />
          </mxGeometry>
        </mxCell>
        <mxCell id="fmuVZZGOlsF8Z4shbadP-12" value="&lt;font style=&quot;font-size: 13px;&quot;&gt;&lt;b&gt;skeletonUI&lt;br&gt;（起動時に表示されるハリボテUI）&lt;/b&gt;&lt;/font&gt;" style="whiteSpace=wrap;html=1;fillColor=#f5f5f5;fontColor=#333333;strokeColor=#666666;strokeWidth=2;" parent="1" vertex="1">
          <mxGeometry x="15" y="480" width="210" height="60" as="geometry" />
        </mxCell>
        <mxCell id="fmuVZZGOlsF8Z4shbadP-13" value="" style="edgeStyle=orthogonalEdgeStyle;rounded=0;orthogonalLoop=1;jettySize=auto;html=1;" parent="1" source="_5mSTuPxr-ZiKRkBDSY7-3" target="fmuVZZGOlsF8Z4shbadP-12" edge="1">
          <mxGeometry relative="1" as="geometry" />
        </mxCell>
        <mxCell id="fmuVZZGOlsF8Z4shbadP-15" value="その他のコンポーネント" style="text;html=1;align=center;verticalAlign=middle;resizable=0;points=[];autosize=1;strokeColor=none;fillColor=none;" parent="1" vertex="1">
          <mxGeometry x="-600" y="520" width="160" height="30" as="geometry" />
        </mxCell>
        <object label="その他のコンポーネントの起動" placeholders="1" id="fmuVZZGOlsF8Z4shbadP-16">
          <mxCell style="whiteSpace=wrap;html=1;strokeWidth=2;fillColor=#ffe6cc;fontStyle=1;spacingTop=0;rounded=1;arcSize=9;points=[];sketch=1;fontFamily=Permanent Marker;hachureGap=8;fillWeight=1;strokeColor=#d79b00;" parent="1" vertex="1">
            <mxGeometry x="250" y="120" width="140" height="80" as="geometry" />
          </mxCell>
        </object>
        <mxCell id="fmuVZZGOlsF8Z4shbadP-18" value="" style="shape=tape;whiteSpace=wrap;html=1;rotation=-90;size=0.3333333333333333;" parent="1" vertex="1">
          <mxGeometry x="683.75" y="146.25" width="120" height="27.5" as="geometry" />
        </mxCell>
        <mxCell id="OLEUzLPQlqHIPB4nFk42-3" style="edgeStyle=orthogonalEdgeStyle;rounded=0;orthogonalLoop=1;jettySize=auto;html=1;" edge="1" parent="1" source="OLEUzLPQlqHIPB4nFk42-1">
          <mxGeometry relative="1" as="geometry">
            <mxPoint x="620" y="445" as="targetPoint" />
          </mxGeometry>
        </mxCell>
        <mxCell id="OLEUzLPQlqHIPB4nFk42-1" value="Text" style="text;html=1;align=center;verticalAlign=middle;resizable=0;points=[];autosize=1;strokeColor=none;fillColor=none;" vertex="1" parent="1">
          <mxGeometry x="410" y="440" width="50" height="30" as="geometry" />
        </mxCell>
        <mxCell id="OLEUzLPQlqHIPB4nFk42-4" value="Text" style="text;html=1;align=center;verticalAlign=middle;resizable=0;points=[];autosize=1;strokeColor=none;fillColor=none;" vertex="1" parent="1">
          <mxGeometry x="425" y="438" width="50" height="30" as="geometry" />
        </mxCell>
      </root>
    </mxGraphModel>
  </diagram>
</mxfile>
